<svg xmlns="http://www.w3.org/2000/svg" width="124" height="21" fill="none"><path fill="#8C8A97" d="M49.068 12.123c0-.25-.04-.475-.119-.674a1.274 1.274 0 0 0-.413-.559c-.204-.173-.49-.344-.857-.51-.368-.167-.844-.34-1.429-.52a18.331 18.331 0 0 1-1.852-.694 7.648 7.648 0 0 1-1.536-.895 4.06 4.06 0 0 1-1.044-1.204c-.25-.456-.375-.986-.375-1.59 0-.583.132-1.113.394-1.588.263-.481.63-.892 1.103-1.233a5.29 5.29 0 0 1 1.675-.799 7.743 7.743 0 0 1 2.138-.28c1.057 0 1.98.187 2.768.56.788.372 1.398.882 1.832 1.53.44.649.66 1.39.66 2.225h-2.936c0-.41-.088-.77-.266-1.079a1.782 1.782 0 0 0-.788-.741c-.348-.18-.788-.27-1.32-.27-.512 0-.939.077-1.28.231-.342.148-.598.35-.769.607a1.47 1.47 0 0 0-.256.848c0 .237.06.452.178.645.124.192.308.372.551.54.243.166.542.323.897.47.354.149.765.293 1.231.434.781.231 1.468.491 2.059.78.597.29 1.096.613 1.497.973.4.36.703.767.906 1.223.204.456.306.973.306 1.55 0 .61-.122 1.156-.365 1.638-.243.481-.594.889-1.054 1.223-.46.333-1.008.587-1.645.76-.637.174-1.35.26-2.137.26-.71 0-1.409-.09-2.099-.27a6.44 6.44 0 0 1-1.881-.837 4.26 4.26 0 0 1-1.34-1.425C41.167 12.874 41 12.19 41 11.4h2.965c0 .437.069.806.207 1.108.138.302.332.546.581.732.256.186.558.32.906.404a5.07 5.07 0 0 0 1.163.125c.512 0 .932-.07 1.26-.212.335-.14.582-.337.74-.587.163-.25.245-.533.245-.847ZM57.017 14.617l2.827-9.245h3.044l-4.285 11.99a6.415 6.415 0 0 1-.375.847 3.435 3.435 0 0 1-.62.857c-.256.276-.581.5-.975.674-.388.173-.864.26-1.429.26-.269 0-.489-.016-.66-.048-.17-.032-.374-.077-.61-.135v-2.032h.226c.079.006.155.01.227.01.374 0 .68-.042.916-.126.236-.083.427-.211.571-.385.145-.167.26-.385.345-.654l.798-2.013Zm-1.182-9.245 2.315 7.55.403 2.937-1.93.202L52.79 5.372h3.044ZM66.798 7.597v8.195h-2.837V5.372h2.66l.177 2.225Zm-.413 2.619h-.769c0-.77.102-1.464.306-2.08.203-.623.489-1.153.856-1.59a3.67 3.67 0 0 1 1.31-1.01 4.025 4.025 0 0 1 1.715-.357c.499 0 .955.071 1.369.212.414.142.768.366 1.064.674.302.309.532.716.69 1.223.163.508.245 1.127.245 1.859v6.645h-2.856V9.137c0-.462-.066-.821-.197-1.078a1.096 1.096 0 0 0-.581-.54c-.25-.109-.559-.163-.926-.163-.381 0-.713.074-.995.221a1.962 1.962 0 0 0-.69.617 2.878 2.878 0 0 0-.404.905 4.346 4.346 0 0 0-.138 1.117ZM79.732 13.818c.348 0 .656-.065.926-.193.269-.135.48-.321.63-.559.158-.244.24-.53.246-.857h2.67a3.417 3.417 0 0 1-.6 1.955 4.107 4.107 0 0 1-1.587 1.339c-.663.32-1.405.481-2.226.481-.828 0-1.55-.134-2.167-.404a4.223 4.223 0 0 1-1.527-1.117 4.86 4.86 0 0 1-.916-1.676 6.78 6.78 0 0 1-.305-2.06v-.28c0-.738.101-1.425.305-2.06.204-.643.509-1.201.916-1.676a4.173 4.173 0 0 1 1.527-1.127c.61-.27 1.326-.405 2.147-.405.874 0 1.639.164 2.295.492a3.712 3.712 0 0 1 1.557 1.406c.38.603.574 1.319.58 2.147h-2.669a2.133 2.133 0 0 0-.226-.944 1.61 1.61 0 0 0-.61-.674c-.263-.173-.589-.26-.976-.26-.414 0-.752.087-1.015.26a1.672 1.672 0 0 0-.61.694c-.145.288-.247.62-.306.991a8.138 8.138 0 0 0-.078 1.156v.28c0 .404.026.792.078 1.165.053.372.151.703.296.991.15.29.358.517.62.684.263.167.605.25 1.025.25ZM88.617 1v14.792H85.78V1h2.837Zm-.404 9.216h-.778a6.9 6.9 0 0 1 .295-2.003c.19-.616.463-1.15.818-1.599a3.753 3.753 0 0 1 1.27-1.059c.5-.25 1.051-.376 1.656-.376a4.35 4.35 0 0 1 1.428.222c.433.141.804.372 1.113.693.315.315.558.729.729 1.243.17.513.256 1.136.256 1.868v6.587h-2.857V9.185c0-.462-.069-.824-.207-1.088a1.127 1.127 0 0 0-.58-.568c-.25-.115-.559-.173-.927-.173-.407 0-.755.074-1.044.221a1.777 1.777 0 0 0-.68.617c-.17.256-.295.558-.374.905a5.033 5.033 0 0 0-.118 1.117Z"/><path fill="#FBAB34" d="M8.673 11.065h2.92c-.058.962-.322 1.815-.79 2.56-.463.746-1.11 1.329-1.944 1.747-.827.419-1.823.628-2.989.628-.912 0-1.729-.157-2.452-.47a5.22 5.22 0 0 1-1.855-1.374C1.055 13.56.667 12.84.4 11.997.133 11.154 0 10.21 0 9.162v-.99C0 7.124.137 6.18.41 5.335c.28-.85.677-1.573 1.192-2.168a5.312 5.312 0 0 1 1.865-1.373c.723-.32 1.53-.481 2.423-.481 1.185 0 2.184.216 2.998.647.82.432 1.455 1.027 1.905 1.786.455.759.729 1.622.82 2.59h-2.93c-.033-.576-.147-1.063-.342-1.462a1.944 1.944 0 0 0-.889-.912c-.39-.21-.911-.314-1.562-.314-.489 0-.915.091-1.28.274-.365.184-.67.462-.918.834-.247.373-.433.844-.557 1.413-.117.563-.176 1.223-.176 1.982v1.01c0 .74.056 1.39.166 1.952.111.556.28 1.027.508 1.413.235.38.534.667.899.864.371.19.817.284 1.338.284.612 0 1.117-.098 1.514-.294.397-.197.7-.488.908-.873.215-.386.342-.867.381-1.443ZM12.893 10.604v-.206c0-.778.11-1.494.332-2.148.221-.66.543-1.233.967-1.717.423-.484.944-.86 1.562-1.128.619-.275 1.329-.412 2.13-.412.8 0 1.513.137 2.139.412.625.268 1.149.644 1.572 1.128.43.484.755 1.056.977 1.717.221.654.332 1.37.332 2.148v.206c0 .772-.11 1.488-.332 2.149a5.01 5.01 0 0 1-.977 1.717c-.423.484-.944.86-1.563 1.128-.618.268-1.328.402-2.129.402-.8 0-1.514-.134-2.139-.402a4.427 4.427 0 0 1-1.572-1.128 5.099 5.099 0 0 1-.967-1.717 6.724 6.724 0 0 1-.332-2.149Zm2.813-.206v.206c0 .445.039.86.117 1.246.078.386.201.726.37 1.02.177.288.404.514.684.677.28.164.622.246 1.026.246.39 0 .726-.082 1.006-.246.28-.163.505-.389.674-.677.17-.294.293-.634.371-1.02.085-.386.127-.8.127-1.246v-.206a5.58 5.58 0 0 0-.127-1.216 3.221 3.221 0 0 0-.38-1.02c-.17-.301-.395-.537-.675-.707-.28-.17-.618-.255-1.015-.255-.398 0-.736.085-1.016.255-.274.17-.498.406-.674.707-.17.294-.293.634-.371 1.02-.078.38-.117.785-.117 1.216ZM27.602 5.189v10.615h-2.823V5.189h2.823Zm-2.999-2.767c0-.412.144-.752.43-1.02.287-.268.67-.402 1.153-.402.475 0 .856.134 1.142.402.293.268.44.608.44 1.02 0 .413-.147.753-.44 1.02-.286.269-.667.403-1.142.403-.482 0-.866-.134-1.153-.402a1.337 1.337 0 0 1-.43-1.02ZM32.68 7.455v8.349h-2.812V5.189h2.637l.176 2.266Zm-.41 2.669h-.761c0-.785.1-1.492.302-2.12.202-.634.486-1.173.85-1.618a3.653 3.653 0 0 1 1.3-1.03 3.901 3.901 0 0 1 1.699-.363c.495 0 .947.072 1.357.216.41.144.762.372 1.055.686.3.314.527.73.684 1.246.163.517.244 1.148.244 1.894v6.769h-2.833v-6.78c0-.47-.065-.836-.195-1.098a1.099 1.099 0 0 0-.576-.55c-.248-.11-.553-.166-.918-.166-.378 0-.707.075-.987.226-.273.15-.501.36-.683.627-.176.262-.31.57-.4.923a4.544 4.544 0 0 0-.138 1.138Z"/><path fill="#FBAB34" fill-rule="evenodd" d="M119.782 4.218a8.884 8.884 0 0 0-12.564 0 8.884 8.884 0 0 0 0 12.564 8.884 8.884 0 0 0 12.564 0 8.884 8.884 0 0 0 .001-12.564h-.001Zm1.143-1.143c4.1 4.1 4.1 10.75 0 14.85-4.101 4.1-10.749 4.1-14.85 0-4.1-4.1-4.1-10.75 0-14.85 4.101-4.1 10.749-4.1 14.85 0Zm-8.512 5.134a2.961 2.961 0 0 0 2.754 4.175.801.801 0 0 1 .161-.007 2.961 2.961 0 1 0-2.915-4.168Zm-1.849.73a2.941 2.941 0 0 0-1.641 2.638 2.962 2.962 0 0 0 2.962 2.962 2.92 2.92 0 0 0 1.93-.726 4.58 4.58 0 0 1-3.251-4.874Zm5.22 5.012a4.559 4.559 0 0 1-3.899 2.203 4.577 4.577 0 0 1-4.577-4.577 4.564 4.564 0 0 1 3.882-4.51 4.576 4.576 0 1 1 4.594 6.884Z" clip-rule="evenodd"/></svg>
