<svg xmlns="http://www.w3.org/2000/svg" width="1440" height="247" fill="none"><path fill="url(#a)" d="M1451.07 252H-3.927c-79.137-25.622-185.031-110.529-64.865-133.176 150.207-28.31 238.921 12.9 470.281 28.309 231.36 15.41 159.281-24.188 401.73-79.554C997.178 23.287 1309.94 22.42 1451.07 35.5V252Z"/><path fill="url(#b)" d="M1445 245.5H0c-68.777-29.075-172.382-125.575-44.836-142.275 159.433-20.875 231.844 24.063 455.257 50.249 223.413 26.185 166.873-16.372 427.843-59.626C1047.04 59.245 1310.1 120.388 1445 140v105.5Z"/><path fill="url(#c)" d="M1566.17 247H-14C-82.777 217.925-45.382 86.924 82.164 70.224 241.597 49.35 314.01 94.288 537.421 120.473c223.413 26.186 166.874-16.371 427.844-59.625 208.775-34.603 530.775-4.031 665.685 15.58L1566.17 247Z"/><defs><linearGradient id="a" x1="675.573" x2="675.573" y1="38" y2="224" gradientUnits="userSpaceOnUse"><stop stop-color="#FBAB34" stop-opacity=".2"/><stop offset="1" stop-color="#FBAB34" stop-opacity="0"/></linearGradient><linearGradient id="b" x1="722.917" x2="713.991" y1="58.565" y2="245.346" gradientUnits="userSpaceOnUse"><stop stop-color="#FBAB34" stop-opacity=".2"/><stop offset="1" stop-color="#FBAB34" stop-opacity="0"/></linearGradient><linearGradient id="c" x1="849.915" x2="840.989" y1="25.564" y2="212.346" gradientUnits="userSpaceOnUse"><stop stop-color="#FBAB34" stop-opacity=".2"/><stop offset="1" stop-color="#FBAB34" stop-opacity="0"/></linearGradient></defs></svg>
