<svg xmlns="http://www.w3.org/2000/svg" width="1440" height="412" fill="none"><mask id="a" width="1440" height="412" x="0" y="0" maskUnits="userSpaceOnUse" style="mask-type:alpha"><path fill="#D9D9D9" d="M1440 0H0v412h1440z"/></mask><g mask="url(#a)"><path fill="url(#b)" d="M-116 412h1640.73c89.24-44.297 208.65-191.088 73.14-230.243-169.38-48.944-269.42 22.303-530.31 48.944-260.892 26.64-179.612-41.819-453.009-137.538C395.833 16.588 43.151 15.089-116 37.703V412Z"/><path fill="url(#c)" d="m-6.463 498.977 1456.643 51.135c64.43-67.595 152.6-296.355 21.21-341.091-164.24-55.921-229.66 49.754-450.45 104.917-220.802 55.163-170.983-45.337-441.349-158.752-216.293-90.732-471.158 47.226-603.843 89.687l17.79 254.104Z"/><path fill="url(#d)" d="m-60.683 409.715 1581.133 4.247c68.45-49.948 29.35-275.928-98.49-305.066-159.79-36.423-231.67 40.869-454.887 85.419-223.214 44.55-167.186-28.678-428.869-103.96C328.857 30.128 7.048 81.977-127.689 115.43l67.006 294.285Z"/></g><defs><linearGradient id="b" x1="758.491" x2="758.491" y1="42.025" y2="363.592" gradientUnits="userSpaceOnUse"><stop stop-color="#FBAB34" stop-opacity=".2"/><stop offset="1" stop-color="#FBAB34" stop-opacity="0"/></linearGradient><linearGradient id="c" x1="689.919" x2="725.832" y1="74.285" y2="524.839" gradientUnits="userSpaceOnUse"><stop stop-color="#FBAB34" stop-opacity=".2"/><stop offset="1" stop-color="#FBAB34" stop-opacity="0"/></linearGradient><linearGradient id="d" x1="653.172" x2="678.755" y1="29.826" y2="350.775" gradientUnits="userSpaceOnUse"><stop stop-color="#FBAB34" stop-opacity=".2"/><stop offset="1" stop-color="#FBAB34" stop-opacity="0"/></linearGradient></defs></svg>
